<svg xmlns="http://www.w3.org/2000/svg" width="17.062" height="21.021" viewBox="0 0 17.062 21.021">
  <path id="Icon_simple-apple" data-name="Icon simple-apple" d="M7.6,20.614A4.708,4.708,0,0,1,6.51,19.607a13.5,13.5,0,0,1-.931-1.273,12.312,12.312,0,0,1-1.558-3.183,11.968,11.968,0,0,1-.65-3.805,7.073,7.073,0,0,1,.877-3.58,5.06,5.06,0,0,1,1.838-1.91,4.9,4.9,0,0,1,2.486-.735,4.1,4.1,0,0,1,.989.131c.254.07.56.184.937.324.481.184.744.3.832.324a2.051,2.051,0,0,0,.7.149,2.1,2.1,0,0,0,.565-.114c.127-.044.368-.123.709-.271.338-.123.606-.228.818-.306a7.305,7.305,0,0,1,.919-.228,4.338,4.338,0,0,1,1-.044,5.961,5.961,0,0,1,1.7.368,4.581,4.581,0,0,1,2.151,1.716,4.308,4.308,0,0,0-.635.481,5.359,5.359,0,0,0-1.077,1.317,4.464,4.464,0,0,0-.564,2.206,4.518,4.518,0,0,0,.735,2.5A4.666,4.666,0,0,0,19.7,15.022a3.441,3.441,0,0,0,.735.394c-.105.328-.221.648-.355.963A12.42,12.42,0,0,1,18.984,18.4c-.378.551-.676.963-.9,1.234a4.88,4.88,0,0,1-1.033.96,2.3,2.3,0,0,1-1.271.382,2.818,2.818,0,0,1-.905-.111c-.254-.083-.5-.177-.749-.283a6.075,6.075,0,0,0-.792-.3,3.956,3.956,0,0,0-1.019-.129,4.085,4.085,0,0,0-1.015.127,6.309,6.309,0,0,0-.794.284c-.368.153-.608.254-.748.3a3.914,3.914,0,0,1-.867.153,2.407,2.407,0,0,1-1.3-.394Zm6-16.159a3.26,3.26,0,0,1-1.727.382,3.51,3.51,0,0,1,.236-1.783,4.82,4.82,0,0,1,.875-1.471A4.735,4.735,0,0,1,14.411.48,4.059,4.059,0,0,1,16.065,0a3.979,3.979,0,0,1-.219,1.812,5.2,5.2,0,0,1-.875,1.541,4.416,4.416,0,0,1-1.388,1.1Z" transform="translate(-3.37 0.002)" fill="#005d99"/>
</svg>
