<svg xmlns="http://www.w3.org/2000/svg" width="24.931" height="19.947" viewBox="0 0 24.931 19.947">
  <g id="Group_548" data-name="Group 548" transform="translate(-1361.739 -484.948)">
    <path id="Path_331" data-name="Path 331" d="M1363.615,502.9c.135-.624.273-1.248.406-1.872q.919-4.3,1.837-8.6a.881.881,0,0,1,1.028-.828h18.827a.846.846,0,0,1,.92,1.147q-1.094,5.07-2.191,10.139a2.463,2.463,0,0,1-2.519,2.006q-8.855,0-17.71,0a2.49,2.49,0,0,1-2.467-2.388c-.015-.459,0-.918,0-1.376q0-6.752,0-13.5a2.5,2.5,0,0,1,2.681-2.672c1.81,0,3.618.008,5.428-.006a1.15,1.15,0,0,1,.98.469c.724.894,1.473,1.769,2.2,2.66a.5.5,0,0,0,.435.206q4.857-.01,9.712,0a1.48,1.48,0,0,1,.385.037.82.82,0,0,1,.607.859.84.84,0,0,1-.738.755,2.052,2.052,0,0,1-.234.006q-5.1,0-10.205,0a1.093,1.093,0,0,1-.919-.431q-1.125-1.376-2.282-2.728a.508.508,0,0,0-.341-.162c-1.713-.011-3.427-.009-5.142-.007a.834.834,0,0,0-.912.923q0,7.389,0,14.776a3.355,3.355,0,0,0,.106.591Zm1.643.34h16.552c.679,0,.932-.212,1.072-.87q.657-3.12,1.322-6.239c.2-.945.4-1.892.606-2.855h-17.459Z" transform="translate(0 0)" fill="#005d99"/>
  </g>
</svg>
