<svg xmlns="http://www.w3.org/2000/svg" width="19.335" height="22.098" viewBox="0 0 19.335 22.098">
  <path id="Icon_awesome-calendar-day" data-name="Icon awesome-calendar-day" d="M0,20.026A2.072,2.072,0,0,0,2.072,22.1H17.264a2.072,2.072,0,0,0,2.072-2.072V8.287H0Zm2.762-8.287a.693.693,0,0,1,.691-.691H7.6a.693.693,0,0,1,.691.691v4.143a.693.693,0,0,1-.691.691H3.453a.693.693,0,0,1-.691-.691Zm14.5-8.977H15.192V.691A.693.693,0,0,0,14.5,0H13.12a.693.693,0,0,0-.691.691V2.762H6.906V.691A.693.693,0,0,0,6.215,0H4.834a.693.693,0,0,0-.691.691V2.762H2.072A2.072,2.072,0,0,0,0,4.834V6.906H19.335V4.834A2.072,2.072,0,0,0,17.264,2.762Z" fill="#667080" opacity="0.5"/>
</svg>
