<svg xmlns="http://www.w3.org/2000/svg" width="30.014" height="30" viewBox="0 0 30.014 30">
  <g id="Group_517" data-name="Group 517" transform="translate(-1620.291 -332.783)">
    <path id="Path_320" data-name="Path 320" d="M1630,334.658c2.286,0,4.572,0,6.859.005a.636.636,0,0,0,.544-.245,4.612,4.612,0,0,1,7.088.051.481.481,0,0,0,.42.192c.87-.007,1.74-.014,2.609,0a2.8,2.8,0,0,1,.045,5.6c-.878.024-1.758.01-2.637,0a.511.511,0,0,0-.446.2,4.62,4.62,0,0,1-7.109.011.545.545,0,0,0-.47-.214q-6.843.009-13.688,0a2.807,2.807,0,1,1-.074-5.611C1625.43,334.65,1627.717,334.658,1630,334.658Zm6.278,1.872c-.037,0-.094-.01-.151-.01q-6.507,0-13.013.007a1.117,1.117,0,0,0-.569.185.892.892,0,0,0-.346,1.034.939.939,0,0,0,.961.663q6.462,0,12.925,0c.076,0,.152-.011.193-.014Zm7.466.926a2.821,2.821,0,1,0-2.813,2.83A2.849,2.849,0,0,0,1643.747,337.456Zm1.825.947c.673,0,1.365.022,2.055-.008a.915.915,0,0,0,.81-.9.9.9,0,0,0-.772-.956c-.706-.042-1.417-.011-2.093-.011Z" fill="#005d99"/>
    <path id="Path_321" data-name="Path 321" d="M1640.606,350.59c-2.306,0-4.611,0-6.917,0a.542.542,0,0,0-.47.214,4.619,4.619,0,0,1-7.109-.012.511.511,0,0,0-.446-.2c-.879.007-1.759.019-2.637,0a2.8,2.8,0,0,1-.814-5.448,3.461,3.461,0,0,1,.977-.152c.829-.021,1.66-.012,2.491,0a.482.482,0,0,0,.421-.191,4.617,4.617,0,0,1,7.127-.01.516.516,0,0,0,.446.2q6.858-.006,13.717,0a2.805,2.805,0,1,1,.073,5.609C1645.179,350.6,1642.892,350.59,1640.606,350.59Zm-6.291-1.861h7.978q2.52,0,5.041,0a1.575,1.575,0,0,0,.406-.035.943.943,0,0,0,.69-1.051.952.952,0,0,0-1-.8h-12.925c-.075,0-.15.012-.191.015Zm-7.467-.952a2.821,2.821,0,1,0,2.828-2.815A2.85,2.85,0,0,0,1626.848,347.777Zm-1.824-.939c-.625,0-1.258,0-1.892,0a.945.945,0,1,0,.014,1.889c.566,0,1.133,0,1.7,0a1.5,1.5,0,0,0,.179-.02Z" fill="#005d99"/>
    <path id="Path_322" data-name="Path 322" d="M1629.989,355.3q3.444,0,6.888,0a.6.6,0,0,0,.519-.234,4.614,4.614,0,0,1,7.088.031.513.513,0,0,0,.445.2c.889-.007,1.779-.021,2.668,0a2.795,2.795,0,0,1,.786,5.445,3.46,3.46,0,0,1-.976.153c-.83.021-1.661.011-2.491,0a.483.483,0,0,0-.422.191,4.617,4.617,0,0,1-7.127.009.518.518,0,0,0-.446-.2q-6.859.006-13.718,0a2.806,2.806,0,1,1-.073-5.61C1625.416,355.286,1627.7,355.3,1629.989,355.3Zm6.292,3.74v-1.878h-4.454q-4.323,0-8.646,0a.948.948,0,1,0,.005,1.89q6.433,0,12.867,0C1636.139,359.047,1636.225,359.038,1636.281,359.035Zm7.466-.939a2.821,2.821,0,1,0-2.815,2.827A2.85,2.85,0,0,0,1643.747,358.1Zm1.824.942c.679,0,1.381.027,2.079-.01a.906.906,0,0,0,.787-.916.894.894,0,0,0-.766-.931c-.707-.042-1.419-.011-2.1-.011Z" fill="#005d99"/>
  </g>
</svg>
