<svg xmlns="http://www.w3.org/2000/svg" xmlns:xlink="http://www.w3.org/1999/xlink" width="79" height="44" viewBox="0 0 79 44">
  <defs>
    <filter id="SOS" x="18" y="3" width="58" height="41" filterUnits="userSpaceOnUse">
      <feOffset dy="3" input="SourceAlpha"/>
      <feGaussianBlur stdDeviation="3" result="blur"/>
      <feFlood flood-color="#fff" flood-opacity="0.161"/>
      <feComposite operator="in" in2="blur"/>
      <feComposite in="SourceGraphic"/>
    </filter>
  </defs>
  <g id="Group_780" data-name="Group 780" transform="translate(-321 -767)">
    <circle id="Ellipse_92" data-name="Ellipse 92" cx="20" cy="20" r="20" transform="translate(360 767)" fill="#f80a0a"/>
    <g id="Group_571" data-name="Group 571" transform="translate(43 22)">
      <g transform="matrix(1, 0, 0, 1, 278, 745)" filter="url(#SOS)">
        <text id="SOS-2" data-name="SOS" transform="translate(27 27)" fill="#007ab6" font-size="19" font-family="Inter-ExtraBold, Inter" font-weight="800" letter-spacing="-0.004em"><tspan x="0" y="0">S</tspan><tspan y="0" fill="#fff">OS</tspan></text>
      </g>
      <path id="Icon_awesome-skull" data-name="Icon awesome-skull" d="M11,0C4.924,0,0,4.31,0,9.625a9.208,9.208,0,0,0,4.061,7.464,1.351,1.351,0,0,1,.58,1.285l-.4,2.845A.682.682,0,0,0,4.911,22H8.25V19.594a.345.345,0,0,1,.344-.344h.688a.345.345,0,0,1,.344.344V22h2.75V19.594a.345.345,0,0,1,.344-.344h.688a.345.345,0,0,1,.344.344V22h3.339a.682.682,0,0,0,.675-.782l-.4-2.845a1.346,1.346,0,0,1,.58-1.285A9.208,9.208,0,0,0,22,9.625C22,4.31,17.076,0,11,0ZM6.875,13.75A2.75,2.75,0,1,1,9.625,11,2.753,2.753,0,0,1,6.875,13.75Zm8.25,0A2.75,2.75,0,1,1,17.875,11,2.753,2.753,0,0,1,15.125,13.75Z" transform="translate(278 755)" fill="#fff"/>
    </g>
    <g id="Group_572" data-name="Group 572" transform="translate(43 21)">
      <path id="Icon_awesome-skull-2" data-name="Icon awesome-skull" d="M11,0C4.924,0,0,4.31,0,9.625a9.208,9.208,0,0,0,4.061,7.464,1.351,1.351,0,0,1,.58,1.285l-.4,2.845A.682.682,0,0,0,4.911,22H8.25V19.594a.345.345,0,0,1,.344-.344h.688a.345.345,0,0,1,.344.344V22h2.75V19.594a.345.345,0,0,1,.344-.344h.688a.345.345,0,0,1,.344.344V22h3.339a.682.682,0,0,0,.675-.782l-.4-2.845a1.346,1.346,0,0,1,.58-1.285A9.208,9.208,0,0,0,22,9.625C22,4.31,17.076,0,11,0ZM6.875,13.75A2.75,2.75,0,1,1,9.625,11,2.753,2.753,0,0,1,6.875,13.75Zm8.25,0A2.75,2.75,0,1,1,17.875,11,2.753,2.753,0,0,1,15.125,13.75Z" transform="translate(278 755)" fill="#007ab6"/>
    </g>
  </g>
</svg>
