<svg xmlns="http://www.w3.org/2000/svg" width="123.005" height="22.969" viewBox="0 0 123.005 22.969">
  <g id="Group_248" data-name="Group 248" transform="translate(-143 -146.66)">
    <g id="Group_1" data-name="Group 1" transform="translate(143 146.66)">
      <g id="Group_244" data-name="Group 244" transform="translate(0 0)">
        <rect id="Rectangle_527" data-name="Rectangle 527" width="6.932" height="0.778" transform="translate(116.072 20.247)" fill="#0c0c0c"/>
        <g id="Group_242" data-name="Group 242">
          <path id="Path_315" data-name="Path 315" d="M44.648,374.992a5.206,5.206,0,0,0-.1-1.229,1.338,1.338,0,0,0-.364-.623,1.7,1.7,0,0,0-.869-.369.036.036,0,0,1-.026-.009H43.27q-.527-.087-.527-.4a.351.351,0,0,1,.114-.276.461.461,0,0,1,.316-.1q.035,0,.782.074a14.5,14.5,0,0,0,1.448.075q.807,0,1.91-.092t1.4-.092a4.78,4.78,0,0,1,3.139.948A3.153,3.153,0,0,1,53,375.466a3.457,3.457,0,0,1-1.067,2.594,3.691,3.691,0,0,1-2.673,1.031,3.994,3.994,0,0,1-1.365-.189q-.505-.189-.505-.513a.236.236,0,0,1,.075-.171.258.258,0,0,1,.189-.075c.012,0,.1.015.277.044a3.112,3.112,0,0,0,.523.044,2.246,2.246,0,0,0,1.707-.605,2.524,2.524,0,0,0,.575-1.8,3.242,3.242,0,0,0-.751-2.239,2.554,2.554,0,0,0-2.006-.843,1.044,1.044,0,0,0-.909.342,3.946,3.946,0,0,0-.242,1.8v7.1a2.818,2.818,0,0,0,.2,1.155,1.309,1.309,0,0,0,.61.645,1.581,1.581,0,0,0,.176.066c.064.021.161.046.29.075l.026.009q.518.123.518.422a.382.382,0,0,1-.105.3.514.514,0,0,1-.342.092q-.053,0-.781-.079A13.065,13.065,0,0,0,46,384.6q-.7,0-1.528.079t-.939.079a.525.525,0,0,1-.316-.083.273.273,0,0,1-.114-.233.424.424,0,0,1,.088-.281,1.217,1.217,0,0,1,.4-.246c.029-.017.081-.045.158-.083s.134-.069.175-.092a1.37,1.37,0,0,0,.549-.65,2.745,2.745,0,0,0,.172-1.045Z" transform="translate(-42.743 -371.708)" fill="#0c0c0c"/>
          <path id="Path_316" data-name="Path 316" d="M77.129,381.565l4.53-10.193v-.009q.105-.237.281-.237a.275.275,0,0,1,.188.088.69.69,0,0,1,.154.228l4.592,10.72a2.543,2.543,0,0,0,.461.768,1.553,1.553,0,0,0,.61.382,2.136,2.136,0,0,0,.211.062.275.275,0,0,0,.044.009l.009.009q.4.123.4.422a.455.455,0,0,1-.057.277q-.057.065-.268.065-.14,0-.988-.079T85.76,384a14.236,14.236,0,0,0-2.028.149c-.141.018-.226.026-.255.026a.253.253,0,0,1-.207-.105.424.424,0,0,1-.083-.272q0-.175.4-.377l.053-.027a1.477,1.477,0,0,0,.659-.417.93.93,0,0,0,.175-.575,1.87,1.87,0,0,0-.044-.391,1.95,1.95,0,0,0-.131-.4l-.509-1.212a1.445,1.445,0,0,0-.4-.623,1.576,1.576,0,0,0-.838-.15H80.017a2.023,2.023,0,0,0-1,.158,1.25,1.25,0,0,0-.4.615l-.492,1.37a3.071,3.071,0,0,0-.105.343,1.19,1.19,0,0,0-.035.272.8.8,0,0,0,.3.645,2.1,2.1,0,0,0,.935.373.059.059,0,0,0,.027.013.294.294,0,0,0,.061,0,1.522,1.522,0,0,1,.518.162.272.272,0,0,1,.114.233.36.36,0,0,1-.105.285.455.455,0,0,1-.307.092q-.088,0-.869-.088a13.072,13.072,0,0,0-1.449-.088,6.826,6.826,0,0,0-1.036.079l-.527.079a.422.422,0,0,1-.294-.092.344.344,0,0,1-.1-.268q0-.246.395-.4a1.6,1.6,0,0,0,.883-.7A7.805,7.805,0,0,0,77.129,381.565Zm3.2-2.835H82.4a1.135,1.135,0,0,0,.425-.062c.1-.041.145-.1.145-.176a.946.946,0,0,0-.044-.206,3.471,3.471,0,0,0-.114-.329l-1.282-3.047a.937.937,0,0,0-.131-.246.188.188,0,0,0-.132-.088.21.21,0,0,0-.149.07.617.617,0,0,0-.123.193l-1.352,3.169a2.331,2.331,0,0,0-.088.259.767.767,0,0,0-.035.189.214.214,0,0,0,.158.215A2.327,2.327,0,0,0,80.325,378.729Z" transform="translate(-65.61 -371.126)" fill="#0c0c0c"/>
          <path id="Path_317" data-name="Path 317" d="M123,379.984V375.47a6.033,6.033,0,0,0-.132-1.4,1.7,1.7,0,0,0-.413-.812,1.481,1.481,0,0,0-.417-.3,1.653,1.653,0,0,0-.575-.132h-.009q-.422-.061-.422-.36a.427.427,0,0,1,.079-.294.379.379,0,0,1,.281-.084c.059,0,.121,0,.189.009l.294.026c.14.029.256.05.347.061a1.932,1.932,0,0,0,.25.018q.159,0,.342-.018t.475-.061l.456-.026c.105-.006.2-.009.272-.009a1.523,1.523,0,0,1,1.053.685l.061.07,6.19,7.428a3.077,3.077,0,0,0,.421.439.563.563,0,0,0,.3.158c.088,0,.15-.069.189-.206a2.745,2.745,0,0,0,.057-.663v-4.583a5.325,5.325,0,0,0-.158-1.519,1.333,1.333,0,0,0-.536-.729,2.942,2.942,0,0,0-1-.373q-.592-.118-.593-.382a.294.294,0,0,1,.1-.241.451.451,0,0,1,.294-.084c.1,0,.2,0,.312.013a3.313,3.313,0,0,1,.347.048c.158.018.327.031.509.04s.374.013.579.013.433-.006.667-.018.512-.032.834-.061c.14-.018.272-.031.395-.04s.234-.013.334-.013a.41.41,0,0,1,.281.075.334.334,0,0,1,.079.25q0,.255-.369.391a2.016,2.016,0,0,0-.544.276,1.334,1.334,0,0,0-.465.641,5.357,5.357,0,0,0-.149,1.423l-.105,9.122a2.083,2.083,0,0,1-.057.57q-.057.185-.18.185-.3,0-.843-.65c-.07-.087-.126-.155-.167-.2l-7.384-8.727a1.617,1.617,0,0,0-.255-.25.412.412,0,0,0-.185-.1c-.07,0-.123.063-.158.189a2.266,2.266,0,0,0-.053.566v4.2a17.01,17.01,0,0,0,.131,2.643,1.965,1.965,0,0,0,.457,1.018,1.718,1.718,0,0,0,.913.36h.018a1.388,1.388,0,0,1,.544.158.319.319,0,0,1,.132.272.407.407,0,0,1-.084.3.656.656,0,0,1-.391.075q-.053,0-.685-.088a8.758,8.758,0,0,0-1.2-.087,11.164,11.164,0,0,0-1.286.079q-.681.079-.742.079a.308.308,0,0,1-.255-.11.5.5,0,0,1-.088-.321q0-.21.412-.333l.018-.009a.229.229,0,0,0,.053-.018,1.469,1.469,0,0,0,.685-.413,2.748,2.748,0,0,0,.4-1.26A16.81,16.81,0,0,0,123,379.984Z" transform="translate(-97.799 -371.792)" fill="#0c0c0c"/>
          <path id="Path_318" data-name="Path 318" d="M170.47,378.087a6.45,6.45,0,0,1,1.962-4.8,6.782,6.782,0,0,1,4.948-1.923,6.36,6.36,0,0,1,4.675,1.835,6.218,6.218,0,0,1,1.848,4.6,6.5,6.5,0,0,1-1.958,4.838,6.833,6.833,0,0,1-5,1.923,6.277,6.277,0,0,1-6.479-6.471Zm2.3-.834a7.84,7.84,0,0,0,1.282,4.676,3.956,3.956,0,0,0,3.362,1.787,3.849,3.849,0,0,0,3.073-1.313,5.321,5.321,0,0,0,1.132-3.6,8.018,8.018,0,0,0-1.312-4.759,3.972,3.972,0,0,0-3.359-1.844,3.772,3.772,0,0,0-3.073,1.335A5.654,5.654,0,0,0,172.77,377.253Z" transform="translate(-132.568 -371.292)" fill="#0c0c0c"/>
          <path id="Path_319" data-name="Path 319" d="M219.715,374.992a5.208,5.208,0,0,0-.1-1.229,1.334,1.334,0,0,0-.364-.623,1.7,1.7,0,0,0-.869-.369.035.035,0,0,1-.026-.009h-.017q-.527-.087-.527-.4a.351.351,0,0,1,.114-.276.462.462,0,0,1,.316-.1q.035,0,.782.074a14.5,14.5,0,0,0,1.448.075q.807,0,1.91-.092t1.4-.092a4.781,4.781,0,0,1,3.139.948,3.153,3.153,0,0,1,1.146,2.564A3.459,3.459,0,0,1,227,378.06a3.691,3.691,0,0,1-2.673,1.031,4,4,0,0,1-1.365-.189q-.5-.189-.5-.513a.235.235,0,0,1,.074-.171.258.258,0,0,1,.189-.075c.012,0,.1.015.277.044a3.116,3.116,0,0,0,.523.044,2.246,2.246,0,0,0,1.708-.605,2.525,2.525,0,0,0,.575-1.8,3.243,3.243,0,0,0-.75-2.239,2.555,2.555,0,0,0-2.006-.843,1.044,1.044,0,0,0-.909.342,3.946,3.946,0,0,0-.242,1.8v7.1a2.823,2.823,0,0,0,.2,1.155,1.309,1.309,0,0,0,.61.645,1.572,1.572,0,0,0,.175.066c.064.021.161.046.29.075l.026.009q.518.123.518.422a.383.383,0,0,1-.105.3.515.515,0,0,1-.342.092q-.053,0-.782-.079a13.06,13.06,0,0,0-1.413-.079q-.7,0-1.528.079t-.94.079a.527.527,0,0,1-.316-.083.273.273,0,0,1-.114-.233.424.424,0,0,1,.088-.281,1.214,1.214,0,0,1,.4-.246c.029-.017.082-.045.158-.083s.134-.069.176-.092a1.372,1.372,0,0,0,.549-.65,2.752,2.752,0,0,0,.171-1.045Z" transform="translate(-165.86 -371.708)" fill="#0c0c0c"/>
          <path id="Path_320" data-name="Path 320" d="M259.554,373.978q0-.553-.188-.689a2.143,2.143,0,0,0-1-.136,5.922,5.922,0,0,0-1.905.211,1.362,1.362,0,0,0-.782.746,5.543,5.543,0,0,0-.307.887q-.158.605-.5.606a.253.253,0,0,1-.22-.1.51.51,0,0,1-.07-.3c.006-.041.023-.155.052-.342q.185-1.071.255-2.046a1.313,1.313,0,0,1,.136-.628.5.5,0,0,1,.391-.119q.114,0,1.111.057t1.857.057h4.258q.9,0,1.944-.048t1.216-.049a.925.925,0,0,1,.553.1.671.671,0,0,1,.132.417l.149,1.844v.158a.733.733,0,0,1-.044.342q-.044.053-.211.052-.316,0-.439-.439a3.334,3.334,0,0,0-.211-.571,1.287,1.287,0,0,0-.733-.645,5.6,5.6,0,0,0-1.708-.18h-.149a2.486,2.486,0,0,0-1.168.154q-.193.154-.193.716v8.033a2.46,2.46,0,0,0,.224,1.159,1.481,1.481,0,0,0,.75.641,3.325,3.325,0,0,0,.509.132.149.149,0,0,0,.044.009l.026.009q.579.132.58.439a.339.339,0,0,1-.118.286.558.558,0,0,1-.347.092q-.123,0-.979-.079t-1.576-.079q-.747,0-1.721.087t-1.168.088a.617.617,0,0,1-.373-.1.325.325,0,0,1-.136-.277q0-.281.536-.413h.009c.035-.011.111-.034.228-.066s.214-.063.29-.092a1.469,1.469,0,0,0,.751-.641,2.324,2.324,0,0,0,.241-1.141Z" transform="translate(-191.722 -371.792)" fill="#0c0c0c"/>
          <path id="Path_321" data-name="Path 321" d="M298.024,375.075a4.977,4.977,0,0,0-.105-1.247,1.344,1.344,0,0,0-.378-.606,1.317,1.317,0,0,0-.382-.237,2.617,2.617,0,0,0-.61-.14h-.018q-.553-.1-.553-.4a.339.339,0,0,1,.123-.276.526.526,0,0,1,.342-.1c.023,0,.106.006.246.017q1.378.132,2.862.132,1.536,0,3.231-.066t1.862-.066q.5,0,.61.115a.808.808,0,0,1,.11.518v.378q0,.641.018,1.343v.184a.473.473,0,0,1-.062.29.3.3,0,0,1-.228.07q-.29,0-.329-.417a2.04,2.04,0,0,0-.136-.628,1.543,1.543,0,0,0-.948-.79,6.871,6.871,0,0,0-2.054-.228,2.059,2.059,0,0,0-1.137.228.927.927,0,0,0-.32.808v2.81a.788.788,0,0,0,.18.58.83.83,0,0,0,.593.176h.58a2.709,2.709,0,0,0,.97-.141,1.417,1.417,0,0,0,.61-.474,2.756,2.756,0,0,0,.273-.509q.228-.518.5-.518a.266.266,0,0,1,.219.088.466.466,0,0,1,.07.29c0,.018-.006.073-.018.167q-.053.6-.053,1.2a18.68,18.68,0,0,0,.114,2.02c.017.175.026.28.026.316a.364.364,0,0,1-.08.259.3.3,0,0,1-.228.083q-.289,0-.36-.474a3.239,3.239,0,0,0-.122-.544,1.322,1.322,0,0,0-.588-.734,2.746,2.746,0,0,0-1.229-.206h-.7a.754.754,0,0,0-.6.189,1.409,1.409,0,0,0-.158.821v2.8a2.156,2.156,0,0,0,.281,1.388,1.737,1.737,0,0,0,1.159.272,5.679,5.679,0,0,0,1.769-.285,4.158,4.158,0,0,0,1.426-.759,3.035,3.035,0,0,0,.676-.8q.29-.482.457-.482a.215.215,0,0,1,.184.1.443.443,0,0,1,.07.259,3.156,3.156,0,0,1-.2.948,3.929,3.929,0,0,1-.5,1.019,2.18,2.18,0,0,1-.944.772,3.635,3.635,0,0,1-1.426.246q-.369,0-1.493-.079t-1.87-.079q-.913,0-1.866.079t-.979.079a.528.528,0,0,1-.316-.083.273.273,0,0,1-.114-.233.425.425,0,0,1,.087-.281,1.216,1.216,0,0,1,.4-.246c.029-.018.082-.045.158-.083s.134-.069.176-.092a1.372,1.372,0,0,0,.549-.65,2.754,2.754,0,0,0,.171-1.045Z" transform="translate(-220.832 -371.792)" fill="#0c0c0c"/>
          <path id="Path_322" data-name="Path 322" d="M334.677,383.33l-.579-2.59q-.027-.105-.048-.2a.887.887,0,0,1-.022-.114.517.517,0,0,1,.079-.334.369.369,0,0,1,.281-.088q.2,0,.413.592a7.247,7.247,0,0,0,.483,1.085,4.652,4.652,0,0,0,1.374,1.558,2.881,2.881,0,0,0,1.664.566,2.473,2.473,0,0,0,1.774-.659,2.265,2.265,0,0,0,.694-1.721q0-1.334-2.669-2.485l-.281-.123-.018-.009q-3.538-1.51-3.538-3.837a3.3,3.3,0,0,1,1.005-2.441,3.458,3.458,0,0,1,2.533-.992,4.744,4.744,0,0,1,1.625.307,4.479,4.479,0,0,0,1.071.308,1.01,1.01,0,0,0,.479-.119.967.967,0,0,1,.276-.118.315.315,0,0,1,.25.088.483.483,0,0,1,.074.308c0,.064-.006.165-.017.3s-.018.248-.018.33a8.305,8.305,0,0,0,.128,1.233,8.34,8.34,0,0,1,.127,1.084.515.515,0,0,1-.061.3.251.251,0,0,1-.211.08q-.272,0-.439-.584a4.845,4.845,0,0,0-.474-1.111,3.456,3.456,0,0,0-1.251-1.2,3.281,3.281,0,0,0-1.646-.448,2.061,2.061,0,0,0-1.431.5,1.624,1.624,0,0,0-.562,1.26,1.666,1.666,0,0,0,.536,1.251,6.209,6.209,0,0,0,1.984,1.067c.106.041.269.1.491.184a7.517,7.517,0,0,1,2.327,1.22,3.374,3.374,0,0,1,.8,1.221,4.267,4.267,0,0,1,.277,1.563,4.039,4.039,0,0,1-1.093,2.941,3.8,3.8,0,0,1-2.849,1.124,5.365,5.365,0,0,1-1.637-.3q-.918-.3-1.128-.334c-.024-.006-.054-.012-.092-.018s-.069-.011-.092-.017a.63.63,0,0,1-.57-.571l-.013-.026A.089.089,0,0,1,334.677,383.33Z" transform="translate(-247.59 -371.416)" fill="#0c0c0c"/>
          <path id="Path_323" data-name="Path 323" d="M367.17,381.565l4.53-10.193v-.009q.105-.237.281-.237a.275.275,0,0,1,.189.088.685.685,0,0,1,.153.228l4.592,10.72a2.537,2.537,0,0,0,.461.768,1.557,1.557,0,0,0,.61.382,2.109,2.109,0,0,0,.211.062.273.273,0,0,0,.044.009l.009.009q.4.123.4.422a.454.454,0,0,1-.057.277.372.372,0,0,1-.268.065q-.141,0-.988-.079T375.8,384a14.243,14.243,0,0,0-2.028.149c-.14.018-.225.026-.255.026a.253.253,0,0,1-.206-.105.422.422,0,0,1-.083-.272q0-.175.4-.377l.053-.027a1.478,1.478,0,0,0,.659-.417.93.93,0,0,0,.175-.575,1.865,1.865,0,0,0-.044-.391,1.939,1.939,0,0,0-.131-.4l-.51-1.212a1.442,1.442,0,0,0-.4-.623,1.574,1.574,0,0,0-.838-.15h-2.537a2.025,2.025,0,0,0-1,.158,1.25,1.25,0,0,0-.395.615l-.492,1.37a3.069,3.069,0,0,0-.106.343,1.192,1.192,0,0,0-.035.272.8.8,0,0,0,.3.645,2.1,2.1,0,0,0,.935.373.059.059,0,0,0,.026.013.3.3,0,0,0,.062,0,1.524,1.524,0,0,1,.518.162.272.272,0,0,1,.114.233.361.361,0,0,1-.1.285.455.455,0,0,1-.308.092q-.088,0-.869-.088a13.072,13.072,0,0,0-1.449-.088,6.824,6.824,0,0,0-1.036.079l-.527.079a.421.421,0,0,1-.294-.092.343.343,0,0,1-.1-.268q0-.246.4-.4a1.942,1.942,0,0,0,.36-.167,1.966,1.966,0,0,0,.523-.531A7.8,7.8,0,0,0,367.17,381.565Zm3.2-2.835h2.072a1.136,1.136,0,0,0,.425-.062c.1-.041.145-.1.145-.176a.94.94,0,0,0-.044-.206,3.377,3.377,0,0,0-.114-.329l-1.282-3.047a.938.938,0,0,0-.131-.246.189.189,0,0,0-.132-.088.21.21,0,0,0-.149.07.618.618,0,0,0-.123.193l-1.352,3.169a2.379,2.379,0,0,0-.088.259.776.776,0,0,0-.035.189.214.214,0,0,0,.158.215A2.324,2.324,0,0,0,370.366,378.729Z" transform="translate(-269.583 -371.126)" fill="#0c0c0c"/>
          <path id="Path_324" data-name="Path 324" d="M413.039,379.984V375.47a6.023,6.023,0,0,0-.132-1.4,1.7,1.7,0,0,0-.413-.812,1.485,1.485,0,0,0-.417-.3,1.653,1.653,0,0,0-.575-.132h-.009q-.421-.061-.421-.36a.427.427,0,0,1,.079-.294.379.379,0,0,1,.281-.084q.088,0,.189.009l.294.026q.21.044.347.061a1.929,1.929,0,0,0,.25.018c.105,0,.22-.006.342-.018s.281-.032.474-.061l.456-.026c.105-.006.2-.009.272-.009a1.522,1.522,0,0,1,1.053.685l.062.07,6.19,7.428a3.07,3.07,0,0,0,.421.439.563.563,0,0,0,.3.158q.132,0,.188-.206a2.727,2.727,0,0,0,.057-.663v-4.583a5.312,5.312,0,0,0-.158-1.519,1.33,1.33,0,0,0-.536-.729,2.939,2.939,0,0,0-1-.373q-.593-.118-.593-.382a.3.3,0,0,1,.1-.241.451.451,0,0,1,.294-.084q.15,0,.312.013a3.3,3.3,0,0,1,.347.048c.158.018.328.031.509.04s.374.013.58.013.433-.006.667-.018.512-.032.834-.061c.141-.018.272-.031.4-.04s.234-.013.333-.013a.409.409,0,0,1,.281.075.334.334,0,0,1,.079.25q0,.255-.369.391a2.026,2.026,0,0,0-.545.276,1.337,1.337,0,0,0-.465.641,5.374,5.374,0,0,0-.149,1.423l-.105,9.122a2.065,2.065,0,0,1-.057.57q-.057.185-.18.185-.3,0-.843-.65c-.07-.087-.126-.155-.167-.2l-7.384-8.727a1.59,1.59,0,0,0-.255-.25.413.413,0,0,0-.185-.1q-.105,0-.158.189a2.256,2.256,0,0,0-.052.566v4.2A17.021,17.021,0,0,0,414,382.67a1.966,1.966,0,0,0,.457,1.018,1.717,1.717,0,0,0,.913.36h.018a1.383,1.383,0,0,1,.544.158.318.318,0,0,1,.132.272.408.408,0,0,1-.084.3.656.656,0,0,1-.391.075q-.053,0-.685-.088a8.757,8.757,0,0,0-1.2-.087,11.165,11.165,0,0,0-1.286.079q-.68.079-.742.079a.307.307,0,0,1-.255-.11.5.5,0,0,1-.088-.321q0-.21.412-.333l.018-.009a.23.23,0,0,0,.052-.018,1.47,1.47,0,0,0,.685-.413,2.746,2.746,0,0,0,.4-1.26A16.814,16.814,0,0,0,413.039,379.984Z" transform="translate(-301.773 -371.792)" fill="#0c0c0c"/>
        </g>
        <g id="Group_243" data-name="Group 243" transform="translate(10.998 18.103)">
          <path id="Path_325" data-name="Path 325" d="M81.795,434.324l-.785-1.565h-1.2l1.459,2.758v1.743h1.061v-1.743l1.447-2.758h-1.2Z" transform="translate(-79.806 -432.573)" fill="#0c0c0c"/>
          <path id="Path_326" data-name="Path 326" d="M101.064,432.91a2.342,2.342,0,0,0-2.269,0,2.144,2.144,0,0,0-.807.822,2.513,2.513,0,0,0,0,2.35,2.146,2.146,0,0,0,.807.822h0a2.334,2.334,0,0,0,2.268,0,2.121,2.121,0,0,0,.8-.823,2.534,2.534,0,0,0,0-2.347A2.126,2.126,0,0,0,101.064,432.91Zm-1.137.723a1.152,1.152,0,0,1,.6.152,1.059,1.059,0,0,1,.407.431,1.44,1.44,0,0,1,.156.691,1.469,1.469,0,0,1-.156.7,1.065,1.065,0,0,1-.407.432,1.239,1.239,0,0,1-1.19,0,1.073,1.073,0,0,1-.407-.432,1.467,1.467,0,0,1-.157-.7,1.443,1.443,0,0,1,.156-.691,1.068,1.068,0,0,1,.408-.431A1.145,1.145,0,0,1,99.927,433.633Z" transform="translate(-92.387 -432.473)" fill="#0c0c0c"/>
          <path id="Path_327" data-name="Path 327" d="M121.4,435.5a.866.866,0,0,1-.168.607.806.806,0,0,1-.993,0,.851.851,0,0,1-.172-.6v-2.746h-1.063v2.74a1.768,1.768,0,0,0,.491,1.339,1.893,1.893,0,0,0,2.474,0,1.767,1.767,0,0,0,.492-1.34v-2.74H121.4Z" transform="translate(-107.374 -432.573)" fill="#0c0c0c"/>
          <path id="Path_328" data-name="Path 328" d="M140.322,435.131a1.416,1.416,0,0,0,.315-.922,1.376,1.376,0,0,0-.439-1.052,1.705,1.705,0,0,0-1.2-.4h-1.487v4.5h1.061v-1.6h.174l.945,1.6h1.256l-1.075-1.774A1.32,1.32,0,0,0,140.322,435.131Zm-1.753-1.371H139a.7.7,0,0,1,.458.115.406.406,0,0,1,.111.333.433.433,0,0,1-.123.341.628.628,0,0,1-.439.124h-.433Z" transform="translate(-120.386 -432.573)" fill="#0c0c0c"/>
          <path id="Path_329" data-name="Path 329" d="M165.9,437.249h2.674v-1h-1.613v-.77h1.45v-1h-1.45v-.748h1.613v-1H165.9Z" transform="translate(-140.35 -432.562)" fill="#0c0c0c"/>
          <path id="Path_330" data-name="Path 330" d="M181.6,434.324l-.785-1.565h-1.2l1.46,2.758v1.743h1.061v-1.743l1.447-2.758h-1.2Z" transform="translate(-149.992 -432.573)" fill="#0c0c0c"/>
          <path id="Path_331" data-name="Path 331" d="M198.086,437.249h2.674v-1h-1.613v-.77h1.45v-1h-1.45v-.748h1.613v-1h-2.674Z" transform="translate(-162.987 -432.562)" fill="#0c0c0c"/>
          <path id="Path_332" data-name="Path 332" d="M215.079,433.726a.358.358,0,0,1,.14.211l.047.284h1.085l-.046-.379a1.317,1.317,0,0,0-.5-.9,1.671,1.671,0,0,0-1.067-.333,1.825,1.825,0,0,0-.785.164,1.367,1.367,0,0,0-.569.483,1.274,1.274,0,0,0-.209.714,1.243,1.243,0,0,0,.227.77,1.319,1.319,0,0,0,.515.41,4.631,4.631,0,0,0,.657.22,4.645,4.645,0,0,1,.473.147.451.451,0,0,1,.179.127.255.255,0,0,1,.048.18.3.3,0,0,1-.111.249.737.737,0,0,1-.795,0,.433.433,0,0,1-.144-.279l-.03-.307h-1.066l.013.352a1.3,1.3,0,0,0,.236.706,1.421,1.421,0,0,0,.588.481h0a1.93,1.93,0,0,0,.8.162,1.732,1.732,0,0,0,.824-.187,1.368,1.368,0,0,0,.558-.517,1.334,1.334,0,0,0,.188-.68,1.224,1.224,0,0,0-.228-.763,1.31,1.31,0,0,0-.52-.413,4.82,4.82,0,0,0-.65-.223,4.38,4.38,0,0,1-.472-.151.459.459,0,0,1-.184-.13.237.237,0,0,1-.045-.169.265.265,0,0,1,.1-.235A.672.672,0,0,1,215.079,433.726Z" transform="translate(-173.565 -432.471)" fill="#0c0c0c"/>
          <path id="Path_333" data-name="Path 333" d="M244.512,432.91a2.342,2.342,0,0,0-2.269,0,2.142,2.142,0,0,0-.807.822,2.513,2.513,0,0,0,0,2.35,2.143,2.143,0,0,0,.807.822h0a2.334,2.334,0,0,0,2.268,0,2.119,2.119,0,0,0,.8-.823,2.535,2.535,0,0,0,0-2.347A2.125,2.125,0,0,0,244.512,432.91Zm-1.137.723a1.155,1.155,0,0,1,.6.151,1.058,1.058,0,0,1,.407.431,1.44,1.44,0,0,1,.156.691,1.469,1.469,0,0,1-.156.7,1.067,1.067,0,0,1-.406.432,1.238,1.238,0,0,1-1.191,0,1.076,1.076,0,0,1-.407-.432,1.47,1.47,0,0,1-.157-.7,1.439,1.439,0,0,1,.156-.691,1.064,1.064,0,0,1,.408-.431A1.144,1.144,0,0,1,243.375,433.633Z" transform="translate(-193.268 -432.473)" fill="#0c0c0c"/>
          <path id="Path_334" data-name="Path 334" d="M265.013,434.735l-1.594-2.417h-.4l-.123-.186v.186h-.383v4.5h1.061V434.4l1.594,2.422h.4l.118.179v-.179h.384v-4.5h-1.063Z" transform="translate(-208.297 -432.132)" fill="#0c0c0c"/>
          <path id="Path_335" data-name="Path 335" d="M291.806,433.756h1.067v3.5h1.061v-3.5h1.061v-1h-3.189Z" transform="translate(-228.896 -432.573)" fill="#0c0c0c"/>
          <path id="Path_336" data-name="Path 336" d="M311.03,434.476h-1.394v-1.717h-1.061v4.5h1.061v-1.787h1.394v1.787h1.061v-4.5H311.03Z" transform="translate(-240.689 -432.573)" fill="#0c0c0c"/>
          <path id="Path_337" data-name="Path 337" d="M327.349,437.249h2.674v-1h-1.613v-.77h1.449v-1h-1.449v-.748h1.613v-1h-2.674Z" transform="translate(-253.892 -432.562)" fill="#0c0c0c"/>
          <path id="Path_338" data-name="Path 338" d="M357.007,435.131a1.421,1.421,0,0,0,.314-.922,1.372,1.372,0,0,0-.44-1.052,1.707,1.707,0,0,0-1.2-.4h-1.487v4.5h1.061v-1.6h.173l.945,1.6h1.256l-1.076-1.774A1.332,1.332,0,0,0,357.007,435.131Zm-1.753-1.371h.426a.7.7,0,0,1,.458.115.406.406,0,0,1,.111.333.432.432,0,0,1-.123.341.63.63,0,0,1-.44.124h-.432Z" transform="translate(-272.77 -432.573)" fill="#0c0c0c"/>
          <path id="Path_339" data-name="Path 339" d="M374.052,432.91a2.342,2.342,0,0,0-2.269,0,2.15,2.15,0,0,0-.807.823,2.51,2.51,0,0,0,0,2.35,2.147,2.147,0,0,0,.807.821h0a2.334,2.334,0,0,0,2.268,0,2.111,2.111,0,0,0,.8-.823,2.527,2.527,0,0,0,0-2.346A2.118,2.118,0,0,0,374.052,432.91Zm-1.137.723a1.154,1.154,0,0,1,.6.152,1.063,1.063,0,0,1,.407.432,1.446,1.446,0,0,1,.156.691,1.463,1.463,0,0,1-.157.7,1.07,1.07,0,0,1-.406.432,1.239,1.239,0,0,1-1.19,0,1.066,1.066,0,0,1-.407-.433,1.462,1.462,0,0,1-.157-.7,1.444,1.444,0,0,1,.157-.692,1.061,1.061,0,0,1,.407-.431A1.151,1.151,0,0,1,372.914,433.633Z" transform="translate(-284.368 -432.473)" fill="#0c0c0c"/>
          <path id="Path_340" data-name="Path 340" d="M392.826,432.525l-.062-.17-.062.17h-.388l-1.645,4.451H391.8l.333-.908H393.4l.334.908h1.128l-1.639-4.451Zm-.332,2.547.27-.738.269.738Z" transform="translate(-298.422 -432.289)" fill="#0c0c0c"/>
          <path id="Path_341" data-name="Path 341" d="M413.881,433.825a1.938,1.938,0,0,0-.837-.8,2.716,2.716,0,0,0-1.242-.267h-1.471v4.5H411.8a2.739,2.739,0,0,0,1.24-.263,1.917,1.917,0,0,0,.839-.794,2.392,2.392,0,0,0,.284-1.185A2.43,2.43,0,0,0,413.881,433.825Zm-2.489-.069h.409a1.3,1.3,0,0,1,.975.322,1.271,1.271,0,0,1,.321.94,1.246,1.246,0,0,1-.32.927,1.318,1.318,0,0,1-.977.318h-.409Z" transform="translate(-312.25 -432.573)" fill="#0c0c0c"/>
        </g>
        <rect id="Rectangle_528" data-name="Rectangle 528" width="6.932" height="0.778" transform="translate(0 20.247)" fill="#0c0c0c"/>
      </g>
    </g>
  </g>
</svg>
