<svg xmlns="http://www.w3.org/2000/svg" width="61" height="61.001" viewBox="0 0 61 61.001">
  <g id="Group_561" data-name="Group 561" transform="translate(-157.5 -444.5)">
    <path id="Union_2" data-name="Union 2" d="M29.989,60a30,30,0,1,1,.018,0Z" transform="translate(158 445)" fill="#c32aa3" stroke="rgba(0,0,0,0)" stroke-width="1"/>
    <g id="Group_558" data-name="Group 558" transform="translate(-1481.067 316.029)">
      <path id="Path_337" data-name="Path 337" d="M1651.082,158.956c0-2.487-.037-4.976.007-7.463a10.731,10.731,0,0,1,9.391-10.419,8.387,8.387,0,0,1,1.049-.08c5.005-.006,10.01-.052,15.014.007a10.692,10.692,0,0,1,10.42,9.384,11.94,11.94,0,0,1,.09,1.428c.006,4.764.022,9.529,0,14.294a10.686,10.686,0,0,1-7.8,10.417,9.9,9.9,0,0,1-2.61.4c-5.032.038-10.066.069-15.1.006a10.69,10.69,0,0,1-10.377-9.382,13.817,13.817,0,0,1-.091-1.639c-.01-2.319,0-4.638,0-6.958Zm32.39.034c0-2.319.005-4.639-.005-6.958a8.3,8.3,0,0,0-.1-1.427,7.172,7.172,0,0,0-7.2-6.036q-7.107-.018-14.214,0a7.25,7.25,0,0,0-7.285,7.313q-.018,7.084,0,14.169a7.266,7.266,0,0,0,7.325,7.317q7.086.015,14.172,0a7.273,7.273,0,0,0,7.307-7.293C1683.483,163.713,1683.472,161.351,1683.472,158.99Z" fill="#fff"/>
      <path id="Path_338" data-name="Path 338" d="M1678.063,159.239a9,9,0,1,1-8.706-9.265A9.015,9.015,0,0,1,1678.063,159.239Zm-14.4-.289a5.4,5.4,0,1,0,5.406-5.379A5.407,5.407,0,0,0,1663.667,158.95Z" fill="#fff"/>
      <path id="Path_339" data-name="Path 339" d="M1678.067,148.173a1.8,1.8,0,0,1,.017,3.6,1.8,1.8,0,1,1-.017-3.6Z" fill="#fff"/>
    </g>
  </g>
</svg>
