<svg xmlns="http://www.w3.org/2000/svg" width="15" height="15" viewBox="0 0 15 15">
  <path id="Icon_awesome-plus" data-name="Icon awesome-plus" d="M13.929,8.143H9.107V3.321A1.072,1.072,0,0,0,8.036,2.25H6.964A1.072,1.072,0,0,0,5.893,3.321V8.143H1.071A1.072,1.072,0,0,0,0,9.214v1.071a1.072,1.072,0,0,0,1.071,1.071H5.893v4.821A1.072,1.072,0,0,0,6.964,17.25H8.036a1.072,1.072,0,0,0,1.071-1.071V11.357h4.821A1.072,1.072,0,0,0,15,10.286V9.214A1.072,1.072,0,0,0,13.929,8.143Z" transform="translate(0 -2.25)" fill="#667080"/>
</svg>
