<svg xmlns="http://www.w3.org/2000/svg" xmlns:xlink="http://www.w3.org/1999/xlink" width="132" height="133" viewBox="0 0 132 133">
  <defs>
    <filter id="Rectangle_124" x="0" y="0" width="132" height="133" filterUnits="userSpaceOnUse">
      <feOffset dy="18" input="SourceAlpha"/>
      <feGaussianBlur stdDeviation="17.5" result="blur"/>
      <feFlood flood-color="#404040" flood-opacity="0.4"/>
      <feComposite operator="in" in2="blur"/>
      <feComposite in="SourceGraphic"/>
    </filter>
    <filter id="Icon_metro-cross" x="51.5" y="37.5" width="28.708" height="28.708" filterUnits="userSpaceOnUse">
      <feOffset dy="3" input="SourceAlpha"/>
      <feGaussianBlur stdDeviation="3" result="blur-2"/>
      <feFlood flood-opacity="0.161"/>
      <feComposite operator="in" in2="blur-2"/>
      <feComposite in="SourceGraphic"/>
    </filter>
  </defs>
  <g id="Group_636" data-name="Group 636" transform="translate(36.5 10.5)">
    <g transform="matrix(1, 0, 0, 1, -36.5, -10.5)" filter="url(#Rectangle_124)">
      <rect id="Rectangle_124-2" data-name="Rectangle 124" width="27" height="28" rx="1" transform="translate(52.5 34.5)" fill="#e23939"/>
    </g>
    <g transform="matrix(1, 0, 0, 1, -36.5, -10.5)" filter="url(#Icon_metro-cross)">
      <path id="Icon_metro-cross-2" data-name="Icon metro-cross" d="M13.181,10.531h0L9.933,7.282l3.248-3.248h0a.335.335,0,0,0,0-.473L11.647,2.026a.336.336,0,0,0-.473,0h0L7.925,5.274,4.676,2.026h0a.335.335,0,0,0-.473,0L2.669,3.56a.335.335,0,0,0,0,.473h0L5.917,7.282,2.669,10.531h0a.335.335,0,0,0,0,.473L4.2,12.538a.335.335,0,0,0,.473,0h0L7.925,9.29l3.248,3.248h0a.335.335,0,0,0,.473,0L13.181,11a.335.335,0,0,0,0-.473Z" transform="translate(57.93 41.57)" fill="#fff"/>
    </g>
  </g>
</svg>
