<svg xmlns="http://www.w3.org/2000/svg" width="22.061" height="22.061" viewBox="0 0 22.061 22.061">
  <g id="Icon_feather-settings" data-name="Icon feather-settings" transform="translate(-0.5 -0.5)">
    <path id="Path_201" data-name="Path 201" d="M18.971,16.236A2.736,2.736,0,1,1,16.236,13.5,2.736,2.736,0,0,1,18.971,16.236Z" transform="translate(-4.705 -4.705)" fill="none" stroke="#005d99" stroke-linecap="round" stroke-linejoin="round" stroke-width="2"/>
    <path id="Path_202" data-name="Path 202" d="M18.278,14.266a1.5,1.5,0,0,0,.3,1.66l.055.055a1.825,1.825,0,1,1-2.581,2.581L16,18.506a1.517,1.517,0,0,0-2.571,1.076v.155a1.824,1.824,0,1,1-3.647,0v-.082a1.5,1.5,0,0,0-.985-1.377,1.5,1.5,0,0,0-1.66.3l-.055.055A1.825,1.825,0,1,1,4.5,16.053L4.555,16a1.517,1.517,0,0,0-1.076-2.571H3.324a1.824,1.824,0,1,1,0-3.647h.082a1.5,1.5,0,0,0,1.377-.985,1.5,1.5,0,0,0-.3-1.66L4.427,7.08A1.825,1.825,0,1,1,7.008,4.5l.055.055a1.5,1.5,0,0,0,1.66.3h.073a1.5,1.5,0,0,0,.912-1.377V3.324a1.824,1.824,0,1,1,3.647,0v.082a1.517,1.517,0,0,0,2.571,1.076l.055-.055a1.825,1.825,0,1,1,2.581,2.581l-.055.055a1.5,1.5,0,0,0-.3,1.66v.073a1.5,1.5,0,0,0,1.377.912h.155a1.824,1.824,0,1,1,0,3.647h-.082a1.5,1.5,0,0,0-1.377.912Z" fill="none" stroke="#005d99" stroke-linecap="round" stroke-linejoin="round" stroke-width="2"/>
  </g>
</svg>
