<svg xmlns="http://www.w3.org/2000/svg" width="22" height="22" viewBox="0 0 22 22">
  <path id="Icon_awesome-skull" data-name="Icon awesome-skull" d="M11,0C4.924,0,0,4.31,0,9.625a9.208,9.208,0,0,0,4.061,7.464,1.351,1.351,0,0,1,.58,1.285l-.4,2.845A.682.682,0,0,0,4.911,22H8.25V19.594a.345.345,0,0,1,.344-.344h.688a.345.345,0,0,1,.344.344V22h2.75V19.594a.345.345,0,0,1,.344-.344h.688a.345.345,0,0,1,.344.344V22h3.339a.682.682,0,0,0,.675-.782l-.4-2.845a1.346,1.346,0,0,1,.58-1.285A9.208,9.208,0,0,0,22,9.625C22,4.31,17.076,0,11,0ZM6.875,13.75A2.75,2.75,0,1,1,9.625,11,2.753,2.753,0,0,1,6.875,13.75Zm8.25,0A2.75,2.75,0,1,1,17.875,11,2.753,2.753,0,0,1,15.125,13.75Z" fill="#f80a0a"/>
</svg>
