<svg xmlns="http://www.w3.org/2000/svg" width="11.739" height="8.758" viewBox="0 0 11.739 8.758">
  <g id="Group_433" data-name="Group 433" transform="translate(-561.871 660.169)">
    <path id="Path_318" data-name="Path 318" d="M566.274-654.459c.054-.068.081-.111.115-.146l5.322-5.324a.6.6,0,0,1,.964,0q.365.364.729.729a.588.588,0,0,1,0,.9l-6.675,6.676a.588.588,0,0,1-.9,0l-3.742-3.743a.589.589,0,0,1,0-.906q.38-.382.762-.762a.586.586,0,0,1,.89,0q1.22,1.218,2.438,2.439A1.488,1.488,0,0,1,566.274-654.459Z" fill="#fff"/>
  </g>
</svg>
