<svg xmlns="http://www.w3.org/2000/svg" width="103.667" height="103.667" viewBox="0 0 103.667 103.667">
  <g id="Group_460" data-name="Group 460" transform="translate(-162.833 -342.333)">
    <path id="Path_61" data-name="Path 61" d="M47.667,93A45.333,45.333,0,1,0,2.334,47.667,45.334,45.334,0,0,0,47.667,93Z" transform="translate(167 346.5)" fill="none" stroke="#43b2ff" stroke-linecap="round" stroke-linejoin="round" stroke-width="13"/>
    <path id="Path_318" data-name="Path 318" d="M583.935-631.554c.269-.343.4-.557.578-.731q13.331-13.343,26.669-26.68c1.61-1.61,3.208-1.606,4.829.014q1.827,1.826,3.652,3.655a2.948,2.948,0,0,1-.02,4.5q-16.724,16.731-33.451,33.458a2.946,2.946,0,0,1-4.5.012q-9.379-9.377-18.754-18.759a2.949,2.949,0,0,1,.006-4.542q1.9-1.912,3.816-3.816a2.939,2.939,0,0,1,4.462.01q6.115,6.105,12.218,12.223A7.491,7.491,0,0,1,583.935-631.554Z" transform="translate(-376.347 1035.832)" fill="#43b2ff"/>
  </g>
</svg>
