<svg xmlns="http://www.w3.org/2000/svg" width="30.012" height="30" viewBox="0 0 30.012 30">
  <g id="Group_518" data-name="Group 518" transform="translate(-1269.99 81.904)">
    <path id="Path_323" data-name="Path 323" d="M1299.992-58.465c0,1.129.013,2.258,0,3.387A3.1,3.1,0,0,1,1297.525-52a4.932,4.932,0,0,1-.947.089c-2.182.007-4.363,0-6.545.006a1.307,1.307,0,0,1-1.2-.619,1.214,1.214,0,0,1-.075-1.309,1.294,1.294,0,0,1,1.182-.7q3.288,0,6.577,0c.712,0,.843-.127.843-.838q0-3.273,0-6.545a1.319,1.319,0,0,1,1.2-1.364,1.314,1.314,0,0,1,1.429,1.364c.008,1.151,0,2.3,0,3.453Z" fill="#005d99"/>
    <path id="Path_324" data-name="Path 324" d="M1293.462-81.9q1.611,0,3.222,0a3.093,3.093,0,0,1,3.29,3.146c.049,2.312.023,4.626.011,6.939a1.325,1.325,0,0,1-1.383,1.292,1.313,1.313,0,0,1-1.239-1.325c-.006-2.214,0-4.428,0-6.643,0-.63-.146-.78-.767-.78q-3.3,0-6.61,0a1.32,1.32,0,0,1-1.372-1.229,1.307,1.307,0,0,1,1.329-1.4C1291.116-81.908,1292.289-81.9,1293.462-81.9Z" fill="#005d99"/>
    <path id="Path_325" data-name="Path 325" d="M1276.561-51.906q-1.628,0-3.256,0a3.1,3.1,0,0,1-3.286-3.15c-.049-2.312-.023-4.626-.01-6.939a1.326,1.326,0,0,1,1.385-1.289,1.315,1.315,0,0,1,1.237,1.328c.006,2.215,0,4.429,0,6.643,0,.628.145.778.769.778,2.192,0,4.385,0,6.577-.005a1.288,1.288,0,0,1,1.076.461,1.253,1.253,0,0,1,.223,1.381,1.292,1.292,0,0,1-1.229.789C1278.885-51.9,1277.723-51.906,1276.561-51.906Z" fill="#005d99"/>
    <path id="Path_326" data-name="Path 326" d="M1270-75.36c0-1.075,0-2.149,0-3.223a3.12,3.12,0,0,1,3.237-3.305c2.258-.027,4.516-.013,6.774-.007a1.339,1.339,0,0,1,1.365,1.38A1.322,1.322,0,0,1,1280-79.267q-3.288,0-6.577,0c-.642,0-.79.145-.789.792q0,3.3,0,6.609a1.314,1.314,0,0,1-1.22,1.347,1.313,1.313,0,0,1-1.407-1.354C1269.995-73.037,1270-74.2,1270-75.36Z" fill="#005d99"/>
  </g>
</svg>
