<svg xmlns="http://www.w3.org/2000/svg" width="17.781" height="17.781" viewBox="0 0 17.781 17.781">
  <path id="Icon_metro-facebook" data-name="Icon metro-facebook" d="M17.389,1.928H5.534A2.963,2.963,0,0,0,2.571,4.892V16.745a2.963,2.963,0,0,0,2.963,2.964h5.927V11.93H9.239V9.707h2.223V8.04A2.778,2.778,0,0,1,14.24,5.262h2.778V7.485H14.24a.556.556,0,0,0-.556.556V9.707H16.74l-.556,2.223h-2.5v7.779h3.7a2.963,2.963,0,0,0,2.963-2.964V4.892a2.964,2.964,0,0,0-2.963-2.964Z" transform="translate(-2.571 -1.928)" fill="#005d99"/>
</svg>
