<svg xmlns="http://www.w3.org/2000/svg" width="20.312" height="16.45" viewBox="0 0 20.312 16.45">
  <path id="Union_4" data-name="Union 4" d="M1146.917,1763.449a1.929,1.929,0,0,1-1.911-1.849c-.012-.355,0-.711,0-1.067q0-5.229,0-10.46a1.939,1.939,0,0,1,2.077-2.069c1.4,0,2.8.006,4.2,0a.89.89,0,0,1,.759.364c.561.692,1.141,1.37,1.705,2.06a.388.388,0,0,0,.338.159q3.762-.008,7.523,0a1.141,1.141,0,0,1,.3.029.634.634,0,0,1,.47.665.649.649,0,0,1-.571.584,1.513,1.513,0,0,1-.181,0q-3.952,0-7.9,0a.848.848,0,0,1-.712-.334q-.872-1.067-1.768-2.113a.39.39,0,0,0-.264-.126c-1.328-.008-2.655-.006-3.983,0a.646.646,0,0,0-.707.715q0,5.724,0,11.445a2.567,2.567,0,0,0,.083.458l.081,0c.105-.483.211-.967.314-1.45q.713-3.329,1.424-6.658a.683.683,0,0,1,.8-.642h14.583a.655.655,0,0,1,.712.888q-.846,3.927-1.7,7.853a1.908,1.908,0,0,1-1.951,1.553h-13.718Z" transform="translate(-1144.5 -1747.5)" fill="#fff" stroke="rgba(0,0,0,0)" stroke-width="1"/>
</svg>
