<svg xmlns="http://www.w3.org/2000/svg" xmlns:xlink="http://www.w3.org/1999/xlink" width="132" height="132" viewBox="0 0 132 132">
  <defs>
    <filter id="Icon_ionic-ios-checkbox" x="0" y="0" width="132" height="132" filterUnits="userSpaceOnUse">
      <feOffset dy="18" input="SourceAlpha"/>
      <feGaussianBlur stdDeviation="17.5" result="blur"/>
      <feFlood flood-opacity="0.4"/>
      <feComposite operator="in" in2="blur"/>
      <feComposite in="SourceGraphic"/>
    </filter>
  </defs>
  <g id="Group_299" data-name="Group 299" transform="translate(-827 6)">
    <rect id="Rectangle_479" data-name="Rectangle 479" width="19" height="18" transform="translate(884 34)" fill="#fff"/>
    <g transform="matrix(1, 0, 0, 1, 827, -6)" filter="url(#Icon_ionic-ios-checkbox)">
      <path id="Icon_ionic-ios-checkbox-2" data-name="Icon ionic-ios-checkbox" d="M29.25,4.5H6.75A2.248,2.248,0,0,0,4.5,6.75v22.5A2.248,2.248,0,0,0,6.75,31.5h22.5a2.248,2.248,0,0,0,2.25-2.25V6.75A2.248,2.248,0,0,0,29.25,4.5Zm-3.691,9.457-9.4,9.443h-.007a1.27,1.27,0,0,1-.816.387,1.231,1.231,0,0,1-.823-.4l-3.937-3.937a.28.28,0,0,1,0-.4L11.827,17.8a.272.272,0,0,1,.394,0l3.122,3.122,8.578-8.641a.278.278,0,0,1,.2-.084h0a.255.255,0,0,1,.2.084l1.23,1.273A.277.277,0,0,1,25.559,13.957Z" transform="translate(48 30)" fill="#44b241"/>
    </g>
  </g>
</svg>
