<svg xmlns="http://www.w3.org/2000/svg" width="29.813" height="27.563" viewBox="0 0 29.813 27.563">
  <path id="Icon_ionic-ios-color-filter" data-name="Icon ionic-ios-color-filter" d="M31.078,17.5a8.879,8.879,0,0,0-4.366-3.066,8.57,8.57,0,0,0,.1-1.343A8.828,8.828,0,0,0,24.23,6.82a8.76,8.76,0,0,0-12.459,0,8.828,8.828,0,0,0-2.58,6.272,9.512,9.512,0,0,0,.1,1.343A8.9,8.9,0,0,0,5.674,29.18,8.77,8.77,0,0,0,18,29.32a8.77,8.77,0,0,0,12.326-.141A8.911,8.911,0,0,0,31.078,17.5ZM18,6.012a7.067,7.067,0,0,1,7.031,7.08,6.716,6.716,0,0,1-.07.991c-.288-.028-.577-.042-.872-.042a8.731,8.731,0,0,0-6.1,2.461,8.718,8.718,0,0,0-6.1-2.461c-.288,0-.584.014-.872.042a7.741,7.741,0,0,1-.07-.991A7.084,7.084,0,0,1,18,6.012Zm0,14.161c-.127,0-.26-.007-.387-.014a6.707,6.707,0,0,1,.387-.78,6.707,6.707,0,0,1,.387.78A3.554,3.554,0,0,1,18,20.173ZM14.723,29.4a6.921,6.921,0,0,1-2.82.591A7.088,7.088,0,0,1,9.731,16.172a8.914,8.914,0,0,0,2.194,3.347,8.753,8.753,0,0,0,3.459,2.046,8.57,8.57,0,0,0-.1,1.343,8.864,8.864,0,0,0,1.561,5.041A7.162,7.162,0,0,1,14.723,29.4Zm1.1-9.57a7.07,7.07,0,0,1-4.31-3.987c.127-.007.26-.014.387-.014a6.945,6.945,0,0,1,2.82.591,7.042,7.042,0,0,1,2.116,1.448A8.94,8.94,0,0,0,15.827,19.828ZM18,26.438a7.1,7.1,0,0,1-.935-3.53,6.716,6.716,0,0,1,.07-.991c.288.028.577.042.872.042s.584-.014.872-.042a7.741,7.741,0,0,1,.07.991A7.267,7.267,0,0,1,18,26.438Zm3.277-10.02a6.921,6.921,0,0,1,2.82-.591c.127,0,.26.007.387.014a7.07,7.07,0,0,1-4.31,3.987,9.1,9.1,0,0,0-1.013-1.962A7.042,7.042,0,0,1,21.277,16.418Zm2.82,13.57a6.945,6.945,0,0,1-2.82-.591,7.042,7.042,0,0,1-2.116-1.448,8.848,8.848,0,0,0,1.561-5.041,9.511,9.511,0,0,0-.1-1.343,8.8,8.8,0,0,0,3.459-2.046,9.029,9.029,0,0,0,2.194-3.347A7.088,7.088,0,0,1,24.1,29.988Z" transform="translate(-3.094 -4.219)" fill="#005d99"/>
</svg>
