<svg xmlns="http://www.w3.org/2000/svg" width="287.75" height="18" viewBox="0 0 287.75 18">
  <g id="Group_684" data-name="Group 684" transform="translate(-105.875 -712)">
    <g id="Group_239" data-name="Group 239" transform="translate(105.875 712)">
      <path id="Icon_open-audio-spectrum" data-name="Icon open-audio-spectrum" d="M9,0V18h2.25V0ZM4.5,2.25v13.5H6.75V2.25Zm9,2.25v9h2.25v-9ZM0,6.75v4.5H2.25V6.75Z" fill="#005d99"/>
      <path id="Icon_open-audio-spectrum-2" data-name="Icon open-audio-spectrum" d="M9,0V18h2.25V0ZM4.5,2.25v13.5H6.75V2.25Zm9,2.25v9h2.25v-9ZM0,6.75v4.5H2.25V6.75Z" transform="translate(38)" fill="#005d99"/>
      <path id="Icon_open-audio-spectrum-3" data-name="Icon open-audio-spectrum" d="M9,0V18h2.25V0ZM4.5,2.25v13.5H6.75V2.25Zm9,2.25v9h2.25v-9ZM0,6.75v4.5H2.25V6.75Z" transform="translate(19)" fill="#005d99"/>
      <path id="Icon_open-audio-spectrum-4" data-name="Icon open-audio-spectrum" d="M9,0V18h2.25V0ZM4.5,2.25v13.5H6.75V2.25Zm9,2.25v9h2.25v-9ZM0,6.75v4.5H2.25V6.75Z" transform="translate(57)" fill="#005d99"/>
    </g>
    <g id="Group_240" data-name="Group 240" transform="translate(177.191 712)">
      <path id="Icon_open-audio-spectrum-5" data-name="Icon open-audio-spectrum" d="M9,0V18h2.25V0ZM4.5,2.25v13.5H6.75V2.25Zm9,2.25v9h2.25v-9ZM0,6.75v4.5H2.25V6.75Z" fill="#005d99"/>
      <path id="Icon_open-audio-spectrum-6" data-name="Icon open-audio-spectrum" d="M9,0V18h2.25V0ZM4.5,2.25v13.5H6.75V2.25Zm9,2.25v9h2.25v-9ZM0,6.75v4.5H2.25V6.75Z" transform="translate(38)" fill="#005d99"/>
      <path id="Icon_open-audio-spectrum-7" data-name="Icon open-audio-spectrum" d="M9,0V18h2.25V0ZM4.5,2.25v13.5H6.75V2.25Zm9,2.25v9h2.25v-9ZM0,6.75v4.5H2.25V6.75Z" transform="translate(19)" fill="#005d99"/>
      <path id="Icon_open-audio-spectrum-8" data-name="Icon open-audio-spectrum" d="M9,0V18h2.25V0ZM4.5,2.25v13.5H6.75V2.25Zm9,2.25v9h2.25v-9ZM0,6.75v4.5H2.25V6.75Z" transform="translate(57)" fill="#005d99"/>
    </g>
    <g id="Group_241" data-name="Group 241" transform="translate(249.309 712)">
      <path id="Icon_open-audio-spectrum-9" data-name="Icon open-audio-spectrum" d="M9,0V18h2.25V0ZM4.5,2.25v13.5H6.75V2.25Zm9,2.25v9h2.25v-9ZM0,6.75v4.5H2.25V6.75Z" fill="#005d99"/>
      <path id="Icon_open-audio-spectrum-10" data-name="Icon open-audio-spectrum" d="M9,0V18h2.25V0ZM4.5,2.25v13.5H6.75V2.25Zm9,2.25v9h2.25v-9ZM0,6.75v4.5H2.25V6.75Z" transform="translate(38)" fill="#005d99"/>
      <path id="Icon_open-audio-spectrum-11" data-name="Icon open-audio-spectrum" d="M9,0V18h2.25V0ZM4.5,2.25v13.5H6.75V2.25Zm9,2.25v9h2.25v-9ZM0,6.75v4.5H2.25V6.75Z" transform="translate(19)" fill="#005d99"/>
      <path id="Icon_open-audio-spectrum-12" data-name="Icon open-audio-spectrum" d="M9,0V18h2.25V0ZM4.5,2.25v13.5H6.75V2.25Zm9,2.25v9h2.25v-9ZM0,6.75v4.5H2.25V6.75Z" transform="translate(57)" fill="#005d99"/>
    </g>
    <g id="Group_242" data-name="Group 242" transform="translate(320.875 712)">
      <path id="Icon_open-audio-spectrum-13" data-name="Icon open-audio-spectrum" d="M9,0V18h2.25V0ZM4.5,2.25v13.5H6.75V2.25Zm9,2.25v9h2.25v-9ZM0,6.75v4.5H2.25V6.75Z" fill="#005d99"/>
      <path id="Icon_open-audio-spectrum-14" data-name="Icon open-audio-spectrum" d="M9,0V18h2.25V0ZM4.5,2.25v13.5H6.75V2.25Zm9,2.25v9h2.25v-9ZM0,6.75v4.5H2.25V6.75Z" transform="translate(38)" fill="#005d99"/>
      <path id="Icon_open-audio-spectrum-15" data-name="Icon open-audio-spectrum" d="M9,0V18h2.25V0ZM4.5,2.25v13.5H6.75V2.25Zm9,2.25v9h2.25v-9ZM0,6.75v4.5H2.25V6.75Z" transform="translate(19)" fill="#005d99"/>
      <path id="Icon_open-audio-spectrum-16" data-name="Icon open-audio-spectrum" d="M9,0V18h2.25V0ZM4.5,2.25v13.5H6.75V2.25Zm9,2.25v9h2.25v-9ZM0,6.75v4.5H2.25V6.75Z" transform="translate(57)" fill="#005d99"/>
    </g>
  </g>
</svg>
