<svg xmlns="http://www.w3.org/2000/svg" width="15.752" height="19.717" viewBox="0 0 15.752 19.717">
  <g id="Icon_ionic-ios-notifications-outline" data-name="Icon ionic-ios-notifications-outline" transform="translate(-6.775 -3.93)">
    <path id="Path_307" data-name="Path 307" d="M18.674,28.336a.638.638,0,0,0-.626.5,1.235,1.235,0,0,1-.246.537.931.931,0,0,1-.793.291.947.947,0,0,1-.793-.291,1.235,1.235,0,0,1-.246-.537.638.638,0,0,0-.626-.5h0a.643.643,0,0,0-.626.784,2.2,2.2,0,0,0,2.291,1.828A2.2,2.2,0,0,0,19.3,29.119a.645.645,0,0,0-.626-.784Z" transform="translate(-2.371 -7.301)" fill="#005d99"/>
    <path id="Path_308" data-name="Path 308" d="M22.33,18.532c-.759-1-2.252-1.587-2.252-6.066,0-4.6-2.03-6.446-3.923-6.889-.177-.044-.306-.1-.306-.291V5.143A1.209,1.209,0,0,0,14.667,3.93h-.03a1.209,1.209,0,0,0-1.183,1.212v.143c0,.182-.128.246-.306.291-1.9.448-3.923,2.291-3.923,6.889,0,4.479-1.493,5.061-2.252,6.066A.978.978,0,0,0,7.758,20.1h13.8A.979.979,0,0,0,22.33,18.532Zm-1.922.286H8.916a.216.216,0,0,1-.163-.36,5.97,5.97,0,0,0,1.035-1.646,11.167,11.167,0,0,0,.7-4.346,7.557,7.557,0,0,1,1.03-4.277,3.162,3.162,0,0,1,1.907-1.36,1.727,1.727,0,0,0,.917-.517.39.39,0,0,1,.586-.01,1.785,1.785,0,0,0,.926.527,3.162,3.162,0,0,1,1.907,1.36,7.557,7.557,0,0,1,1.03,4.277,11.168,11.168,0,0,0,.7,4.346,6.038,6.038,0,0,0,1.06,1.671A.2.2,0,0,1,20.408,18.818Z" transform="translate(0 0)" fill="#005d99"/>
  </g>
</svg>
