<svg xmlns="http://www.w3.org/2000/svg" width="10.993" height="15.45" viewBox="0 0 10.993 15.45">
  <g id="Group_608" data-name="Group 608" transform="translate(-1940.92 -101.663)">
    <path id="Path_361" data-name="Path 361" d="M1947.3,111.185c.1-.1.158-.149.213-.2.918-.918,1.833-1.841,2.757-2.754a.949.949,0,0,1,1.559.274.959.959,0,0,1-.218,1.078c-.433.44-.872.874-1.309,1.31q-1.557,1.559-3.116,3.116a.968.968,0,0,1-1.539,0q-2.205-2.207-4.41-4.412a.953.953,0,1,1,1.334-1.359c.651.644,1.3,1.294,1.943,1.941.31.31.618.62.976.98v-.309q.008-4.1.014-8.2a.913.913,0,1,1,1.821-.036c0,.809,0,1.618-.005,2.427q-.009,2.928-.02,5.855Z" fill="#fff"/>
    <path id="Path_362" data-name="Path 362" d="M1946.407,117.111q-2.223,0-4.447,0a.912.912,0,1,1-.045-1.819q2.287,0,4.574,0,2.225,0,4.448,0a.9.9,0,0,1,.878.614.853.853,0,0,1-.307,1,1.316,1.316,0,0,1-.654.194C1949.372,117.119,1947.889,117.111,1946.407,117.111Z" fill="#fff"/>
  </g>
</svg>
