<svg xmlns="http://www.w3.org/2000/svg" width="61" height="61.001" viewBox="0 0 61 61.001">
  <g id="Group_562" data-name="Group 562" transform="translate(-76.5 -444.5)">
    <path id="Union_1" data-name="Union 1" d="M29.989,60a30,30,0,1,1,.018,0Z" transform="translate(77 445)" fill="#3b5998" stroke="rgba(0,0,0,0)" stroke-width="1"/>
    <g id="Group_557" data-name="Group 557" transform="translate(-1182.551 332.087)">
      <path id="Path_334" data-name="Path 334" d="M1286.094,152.706c0-2.585-.007-5.171.008-7.757,0-.353-.1-.447-.444-.443-1.574.018-3.148,0-4.721.014-.283,0-.388-.058-.386-.367q.021-2.846,0-5.691c0-.31.107-.366.386-.364,1.574.012,3.148-.005,4.721.014.359,0,.447-.109.444-.453-.015-1.545-.007-3.091,0-4.637a9.045,9.045,0,0,1,.753-3.686,7.112,7.112,0,0,1,5.878-4.285,25.478,25.478,0,0,1,5.507.041c.042,0,.084.011.126.015.9.09.9.09.9,1.009,0,.829.01,1.658,0,2.487a18.747,18.747,0,0,1-.042,2.224,16.085,16.085,0,0,1-2.217.058c-.589.023-1.179.033-1.769.053a2.372,2.372,0,0,0-.376.037,2.257,2.257,0,0,0-2.127,2.446c-.066,1.473-.017,2.951-.031,4.426,0,.3.18.257.36.257,1.841,0,3.682.01,5.522-.009.378,0,.457.068.4.463-.263,1.847-.49,3.7-.71,5.553-.039.323-.155.414-.474.41-1.545-.016-3.091.005-4.637-.016-.36,0-.469.073-.468.457.015,5.143,0,10.287.022,15.43,0,.441-.124.526-.536.521-1.9-.022-3.793-.017-5.69,0-.318,0-.4-.091-.4-.4C1286.1,157.906,1286.094,155.306,1286.094,152.706Z" fill="#fff"/>
    </g>
  </g>
</svg>
