<svg xmlns="http://www.w3.org/2000/svg" width="17.648" height="17.99" viewBox="0 0 17.648 17.99">
  <path id="Icon_ionic-logo-google" data-name="Icon ionic-logo-google" d="M21.2,10.991l-.091-.385H12.74v3.543h5a5.005,5.005,0,0,1-4.9,3.763A5.856,5.856,0,0,1,8.9,16.341,5.626,5.626,0,0,1,7.225,12.37,5.8,5.8,0,0,1,8.873,8.4a5.606,5.606,0,0,1,3.915-1.531,5.106,5.106,0,0,1,3.331,1.3l2.517-2.5a8.907,8.907,0,0,0-5.93-2.284h0A9.168,9.168,0,0,0,6.217,6.021a9.131,9.131,0,0,0-2.561,6.354,9.039,9.039,0,0,0,2.461,6.25,9.389,9.389,0,0,0,6.769,2.747,8.35,8.35,0,0,0,6.082-2.556A8.98,8.98,0,0,0,21.3,12.6,10.357,10.357,0,0,0,21.2,10.991Z" transform="translate(-3.656 -3.382)" fill="#005d99"/>
</svg>
