<svg xmlns="http://www.w3.org/2000/svg" width="61" height="61.001" viewBox="0 0 61 61.001">
  <g id="Group_560" data-name="Group 560" transform="translate(-237.5 -444.5)">
    <path id="Union_3" data-name="Union 3" d="M29.989,60a30,30,0,1,1,.018,0Z" transform="translate(238 445)" fill="#00acee" stroke="rgba(0,0,0,0)" stroke-width="1"/>
    <g id="Group_559" data-name="Group 559" transform="translate(-1255.483 427.989)">
      <path id="Path_342" data-name="Path 342" d="M1517,54.291c-3.05-.322-5.613-2.266-6.032-4.547h2.7l.037-.122a6.7,6.7,0,0,1-5.114-6.5,7.021,7.021,0,0,0,2.958.812,6.63,6.63,0,0,1-2.708-4,6.461,6.461,0,0,1,.716-4.7,18.741,18.741,0,0,0,13.461,6.824c-.035-.274-.065-.493-.092-.712a6.53,6.53,0,0,1,11.01-5.5.555.555,0,0,0,.592.168,13.665,13.665,0,0,0,3.4-1.289c.1-.055.205-.105.393-.2a6.665,6.665,0,0,1-2.725,3.515l.059.127,3.539-.968c-.53.623-1.008,1.237-1.543,1.8a15.405,15.405,0,0,1-1.42,1.255.641.641,0,0,0-.27.566,18.9,18.9,0,0,1-6.216,14.48,17.1,17.1,0,0,1-9.624,4.436,18.634,18.634,0,0,1-11.631-2.079,11.717,11.717,0,0,1-1.01-.617A13.441,13.441,0,0,0,1517,54.291Z" transform="translate(0)" fill="#fff"/>
    </g>
  </g>
</svg>
